<svg xmlns="http://www.w3.org/2000/svg" viewBox="0 0 320 152" role="img" aria-label="Rhinestones style placeholder">
  <defs>
    <radialGradient id="crys" cx="38%" cy="28%" r="74%">
      <stop offset="0%" stop-color="#ffffff"/>
      <stop offset="28%" stop-color="#cfe3fb"/>
      <stop offset="64%" stop-color="#7e9ac6"/>
      <stop offset="100%" stop-color="#2b3a5a"/>
    </radialGradient>
    <g id="rh-gem">
      <circle r="1" fill="url(#crys)" stroke="#1b2740" stroke-width="0.14" stroke-opacity="0.85"/>
      <!-- crystalline star glint -->
      <path d="M0,-0.62 L0.1,-0.1 L0.62,0 L0.1,0.1 L0,0.62 L-0.1,0.1 L-0.62,0 L-0.1,-0.1 Z" fill="#ffffff"/>
    </g>
  </defs>
  <g>
    <use href="#rh-gem" transform="translate(70,40) scale(6)"/>
    <use href="#rh-gem" transform="translate(98,32) scale(7)"/>
    <use href="#rh-gem" transform="translate(126,30) scale(5)"/>
    <use href="#rh-gem" transform="translate(152,38) scale(8)"/>
    <use href="#rh-gem" transform="translate(182,46) scale(5.5)"/>
    <use href="#rh-gem" transform="translate(210,38) scale(6.5)"/>
    <use href="#rh-gem" transform="translate(240,34) scale(5)"/>
    <use href="#rh-gem" transform="translate(64,82) scale(6)"/>
    <use href="#rh-gem" transform="translate(94,78) scale(5)"/>
    <use href="#rh-gem" transform="translate(122,84) scale(7.5)"/>
    <use href="#rh-gem" transform="translate(154,90) scale(5.5)"/>
    <use href="#rh-gem" transform="translate(184,84) scale(6.5)"/>
    <use href="#rh-gem" transform="translate(214,80) scale(5)"/>
    <use href="#rh-gem" transform="translate(244,84) scale(6)"/>
    <use href="#rh-gem" transform="translate(90,118) scale(5)"/>
    <use href="#rh-gem" transform="translate(120,122) scale(6.5)"/>
    <use href="#rh-gem" transform="translate(152,118) scale(5)"/>
    <use href="#rh-gem" transform="translate(182,124) scale(7)"/>
    <use href="#rh-gem" transform="translate(214,120) scale(5.5)"/>
  </g>
</svg>
